HIERARCHY
ROOT Hips
{
	OFFSET 0.000000 71.427986 0.000000
	CHANNELS 6 Xposition Yposition Zposition Xrotation Yrotation Zrotation
	JOINT Pelvis
	{
		OFFSET 0.000000 0.000000 0.000000
		CHANNELS 3 Xrotation Yrotation Zrotation
		JOINT LeftUpLeg
		{
			OFFSET 6.797100 -2.508499 -1.318700
			CHANNELS 3 Xrotation Yrotation Zrotation
			JOINT LeftLeg
			{
				OFFSET 0.069008 -29.241863 0.690200
				CHANNELS 3 Xrotation Yrotation Zrotation
				JOINT LeftFoot
				{
					OFFSET -0.069008 -29.568123 -0.266800
					CHANNELS 3 Xrotation Yrotation Zrotation
					JOINT LeftToeBase
					{
						OFFSET 3.145500 -8.631000 16.059900
						CHANNELS 3 Xrotation Yrotation Zrotation
						End Site
						{
							OFFSET 0.000000 18.501587 0.000000
						}
					}
				}
			}
			JOINT Left_ShortSleeve
			{
				OFFSET 0.265923 -10.480953 1.153800
				CHANNELS 3 Xrotation Yrotation Zrotation
				End Site
				{
					OFFSET 1.725763 19.823879 0.000000
				}
			}
		}
		JOINT RightUpLeg
		{
			OFFSET -6.797100 -2.508499 -1.318700
			CHANNELS 3 Xrotation Yrotation Zrotation
			JOINT RightLeg
			{
				OFFSET -0.082453 -29.241932 0.688000
				CHANNELS 3 Xrotation Yrotation Zrotation
				JOINT RightFoot
				{
					OFFSET 0.082453 -29.568058 -0.264600
					CHANNELS 3 Xrotation Yrotation Zrotation
					JOINT RightToeBase
					{
						OFFSET -3.115300 -8.682800 16.113400
						CHANNELS 3 Xrotation Yrotation Zrotation
						End Site
						{
							OFFSET 0.000000 18.567114 0.000000
						}
					}
				}
			}
			JOINT Right_ShortSleeve
			{
				OFFSET -0.265923 -10.480953 1.153800
				CHANNELS 3 Xrotation Yrotation Zrotation
				End Site
				{
					OFFSET -1.725766 19.823910 0.000000
				}
			}
		}
	}
	JOINT Spine
	{
		OFFSET 0.000000 13.368103 0.470500
		CHANNELS 3 Xrotation Yrotation Zrotation
		JOINT Spine1
		{
			OFFSET 0.147000 13.837402 0.538800
			CHANNELS 3 Xrotation Yrotation Zrotation
			JOINT Spine2
			{
				OFFSET 0.168000 16.242897 -1.435500
				CHANNELS 3 Xrotation Yrotation Zrotation
				JOINT Neck
				{
					OFFSET 0.217200 18.631500 -1.679100
					CHANNELS 3 Xrotation Yrotation Zrotation
					JOINT Head
					{
						OFFSET 0.000000 6.599396 1.385900
						CHANNELS 3 Xrotation Yrotation Zrotation
						JOINT Hat
						{
							OFFSET -0.532200 27.220596 -10.096100
							CHANNELS 3 Xrotation Yrotation Zrotation
							End Site
							{
								OFFSET 0.000000 22.029861 0.000000
							}
						}
						JOINT HairD
						{
							OFFSET -10.777400 17.437393 -1.325900
							CHANNELS 3 Xrotation Yrotation Zrotation
							JOINT HairD1
							{
								OFFSET -3.290299 -11.051193 1.062200
								CHANNELS 3 Xrotation Yrotation Zrotation
								End Site
								{
									OFFSET 0.000000 11.579437 0.000000
								}
							}
						}
						JOINT HairB
						{
							OFFSET -10.777400 17.437393 1.467900
							CHANNELS 3 Xrotation Yrotation Zrotation
							JOINT HairB1
							{
								OFFSET -1.561200 -12.956299 3.590200
								CHANNELS 3 Xrotation Yrotation Zrotation
								End Site
								{
									OFFSET 0.000000 13.534866 0.000000
								}
							}
						}
						JOINT HairA
						{
							OFFSET 9.713100 17.437393 1.467900
							CHANNELS 3 Xrotation Yrotation Zrotation
							JOINT HairA1
							{
								OFFSET 1.561200 -12.956299 3.590200
								CHANNELS 3 Xrotation Yrotation Zrotation
								End Site
								{
									OFFSET 0.000000 13.534866 0.000000
								}
							}
						}
						JOINT HairC
						{
							OFFSET 9.713100 17.437393 -1.325900
							CHANNELS 3 Xrotation Yrotation Zrotation
							JOINT HairC1
							{
								OFFSET 3.290300 -11.051193 1.062200
								CHANNELS 3 Xrotation Yrotation Zrotation
								End Site
								{
									OFFSET 0.000000 11.579437 0.000000
								}
							}
						}
					}
				}
				JOINT LeftShoulder
				{
					OFFSET 5.101800 15.108002 -2.763700
					CHANNELS 3 Xrotation Yrotation Zrotation
					JOINT LeftArm
					{
						OFFSET 9.825497 2.506317 -1.597400
						CHANNELS 3 Xrotation Yrotation Zrotation
						JOINT LeftForeArm
						{
							OFFSET 21.966244 0.000000 0.000000
							CHANNELS 3 Xrotation Yrotation Zrotation
							JOINT LeftHand
							{
								OFFSET 33.879036 0.000000 0.000000
								CHANNELS 3 Xrotation Yrotation Zrotation
								JOINT LeftHandThumb1
								{
									OFFSET 6.715286 -2.359680 3.363841
									CHANNELS 3 Xrotation Yrotation Zrotation
									JOINT LeftHandThumb2
									{
										OFFSET 2.507072 -1.447464 1.447461
										CHANNELS 3 Xrotation Yrotation Zrotation
										JOINT LeftHandThumb3
										{
											OFFSET 2.898338 -1.673355 1.673357
											CHANNELS 3 Xrotation Yrotation Zrotation
											End Site
											{
												OFFSET -0.295959 3.727692 -0.131651
											}
										}
									}
								}
								JOINT LeftHandIndex1
								{
									OFFSET 14.190811 -0.254547 3.840278
									CHANNELS 3 Xrotation Yrotation Zrotation
									JOINT LeftHandIndex2
									{
										OFFSET 3.551727 0.000000 -0.000000
										CHANNELS 3 Xrotation Yrotation Zrotation
										JOINT LeftHandIndex3
										{
											OFFSET 2.894196 0.000000 0.000000
											CHANNELS 3 Xrotation Yrotation Zrotation
											End Site
											{
												OFFSET -1.000603 2.690872 0.366626
											}
										}
									}
								}
								JOINT LeftHandMiddle1
								{
									OFFSET 13.776489 0.000000 0.000000
									CHANNELS 3 Xrotation Yrotation Zrotation
									JOINT LeftHandMiddle2
									{
										OFFSET 3.438232 0.000000 0.000000
										CHANNELS 3 Xrotation Yrotation Zrotation
										JOINT LeftHandMiddle3
										{
											OFFSET 3.691551 0.000000 0.000000
											CHANNELS 3 Xrotation Yrotation Zrotation
											End Site
											{
												OFFSET -1.082298 3.499527 0.457670
											}
										}
									}
								}
								JOINT LeftHandRing1
								{
									OFFSET 13.966164 -0.268127 -3.067488
									CHANNELS 3 Xrotation Yrotation Zrotation
									JOINT LeftHandRing2
									{
										OFFSET 3.162567 0.000000 0.000000
										CHANNELS 3 Xrotation Yrotation Zrotation
										JOINT LeftHandRing3
										{
											OFFSET 3.324348 0.000000 0.000000
											CHANNELS 3 Xrotation Yrotation Zrotation
											End Site
											{
												OFFSET -0.861900 3.184998 0.405154
											}
										}
									}
								}
								JOINT LeftHandPinky1
								{
									OFFSET 13.131393 -0.168503 -5.746925
									CHANNELS 3 Xrotation Yrotation Zrotation
									JOINT LeftHandPinky2
									{
										OFFSET 2.849182 0.000000 0.000000
										CHANNELS 3 Xrotation Yrotation Zrotation
										JOINT LeftHandPinky3
										{
											OFFSET 2.805038 0.000000 0.000000
											CHANNELS 3 Xrotation Yrotation Zrotation
											End Site
											{
												OFFSET -0.882500 2.642609 0.325652
											}
										}
									}
								}
							}
							JOINT Left_Sleeve
							{
								OFFSET 6.592125 -0.646545 0.805568
								CHANNELS 3 Xrotation Yrotation Zrotation
								End Site
								{
									OFFSET -0.000179 20.275787 -0.000000
								}
							}
						}
					}
				}
				JOINT RightShoulder
				{
					OFFSET -5.731700 15.108002 -2.763700
					CHANNELS 3 Xrotation Yrotation Zrotation
					JOINT RightArm
					{
						OFFSET -9.825497 2.506317 -1.597400
						CHANNELS 3 Xrotation Yrotation Zrotation
						JOINT RightForeArm
						{
							OFFSET -21.966242 0.000000 0.000000
							CHANNELS 3 Xrotation Yrotation Zrotation
							JOINT RightHand
							{
								OFFSET -33.879032 0.000000 0.000000
								CHANNELS 3 Xrotation Yrotation Zrotation
								JOINT RightHandThumb1
								{
									OFFSET -6.715286 -2.359680 3.363841
									CHANNELS 3 Xrotation Yrotation Zrotation
									JOINT RightHandThumb2
									{
										OFFSET -2.507072 -1.447464 1.447461
										CHANNELS 3 Xrotation Yrotation Zrotation
										JOINT RightHandThumb3
										{
											OFFSET -2.898338 -1.673355 1.673357
											CHANNELS 3 Xrotation Yrotation Zrotation
											End Site
											{
												OFFSET 0.295959 3.727692 -0.131651
											}
										}
									}
								}
								JOINT RightHandIndex1
								{
									OFFSET -14.190811 -0.254547 3.840278
									CHANNELS 3 Xrotation Yrotation Zrotation
									JOINT RightHandIndex2
									{
										OFFSET -3.551727 0.000000 -0.000000
										CHANNELS 3 Xrotation Yrotation Zrotation
										JOINT RightHandIndex3
										{
											OFFSET -2.894196 0.000000 0.000000
											CHANNELS 3 Xrotation Yrotation Zrotation
											End Site
											{
												OFFSET 1.000603 2.690872 0.366626
											}
										}
									}
								}
								JOINT RightHandMiddle1
								{
									OFFSET -13.776489 0.000000 0.000000
									CHANNELS 3 Xrotation Yrotation Zrotation
									JOINT RightHandMiddle2
									{
										OFFSET -3.438232 0.000000 0.000000
										CHANNELS 3 Xrotation Yrotation Zrotation
										JOINT RightHandMiddle3
										{
											OFFSET -3.691551 0.000000 0.000000
											CHANNELS 3 Xrotation Yrotation Zrotation
											End Site
											{
												OFFSET 1.082298 3.499527 0.457670
											}
										}
									}
								}
								JOINT RightHandRing1
								{
									OFFSET -13.966164 -0.268127 -3.067488
									CHANNELS 3 Xrotation Yrotation Zrotation
									JOINT RightHandRing2
									{
										OFFSET -3.162567 0.000000 0.000000
										CHANNELS 3 Xrotation Yrotation Zrotation
										JOINT RightHandRing3
										{
											OFFSET -3.324348 0.000000 0.000000
											CHANNELS 3 Xrotation Yrotation Zrotation
											End Site
											{
												OFFSET 0.861900 3.184998 0.405154
											}
										}
									}
								}
								JOINT RightHandPinky1
								{
									OFFSET -13.131393 -0.168503 -5.746925
									CHANNELS 3 Xrotation Yrotation Zrotation
									JOINT RightHandPinky2
									{
										OFFSET -2.849182 0.000000 0.000000
										CHANNELS 3 Xrotation Yrotation Zrotation
										JOINT RightHandPinky3
										{
											OFFSET -2.805038 0.000000 0.000000
											CHANNELS 3 Xrotation Yrotation Zrotation
											End Site
											{
												OFFSET 0.882500 2.642609 0.325652
											}
										}
									}
								}
							}
							JOINT Right_Sleeve
							{
								OFFSET -6.592125 -0.646545 0.805568
								CHANNELS 3 Xrotation Yrotation Zrotation
								End Site
								{
									OFFSET 0.000179 20.275787 -0.000000
								}
							}
						}
					}
				}
				JOINT Bind_Right_JacketString
				{
					OFFSET -3.534800 11.969597 7.200700
					CHANNELS 3 Xrotation Yrotation Zrotation
					JOINT Bind_Right_JacketString1
					{
						OFFSET -0.319900 -6.102600 2.794100
						CHANNELS 3 Xrotation Yrotation Zrotation
						End Site
						{
							OFFSET 0.000000 6.719452 0.000000
						}
					}
				}
				JOINT Bind_Left_JacketString
				{
					OFFSET 2.904800 11.969597 7.200700
					CHANNELS 3 Xrotation Yrotation Zrotation
					JOINT Bind_Left_JacketString1
					{
						OFFSET 0.364800 -5.904503 3.186800
						CHANNELS 3 Xrotation Yrotation Zrotation
						End Site
						{
							OFFSET 0.000000 6.719513 0.000000
						}
					}
				}
				JOINT HairE
				{
					OFFSET 5.915200 17.612701 -11.592200
					CHANNELS 3 Xrotation Yrotation Zrotation
					JOINT HairE1
					{
						OFFSET 0.289200 -7.171898 -1.284500
						CHANNELS 3 Xrotation Yrotation Zrotation
						End Site
						{
							OFFSET 0.000000 7.291756 0.000000
						}
					}
				}
				JOINT HairF
				{
					OFFSET -0.864800 17.612701 -11.592200
					CHANNELS 3 Xrotation Yrotation Zrotation
					JOINT HairF1
					{
						OFFSET 0.000000 -14.087097 -2.127501
						CHANNELS 3 Xrotation Yrotation Zrotation
						End Site
						{
							OFFSET 0.000000 14.246841 0.000000
						}
					}
				}
				JOINT HairG
				{
					OFFSET -8.087700 17.612701 -11.592200
					CHANNELS 3 Xrotation Yrotation Zrotation
					JOINT HairG1
					{
						OFFSET -0.293600 -6.081398 -0.910100
						CHANNELS 3 Xrotation Yrotation Zrotation
						End Site
						{
							OFFSET 0.000000 6.156120 0.000000
						}
					}
				}
			}
		}
	}
	JOINT Pouch
	{
		OFFSET 0.000000 4.394501 10.847300
		CHANNELS 3 Xrotation Yrotation Zrotation
		End Site
		{
			OFFSET 0.000000 21.880577 0.000000
		}
	}
	JOINT Bag
	{
		OFFSET -13.229000 4.813004 -0.593300
		CHANNELS 3 Xrotation Yrotation Zrotation
		End Site
		{
			OFFSET 0.000000 21.880577 0.000000
		}
	}
	JOINT OccupyGuyFacialAnim_Joint
	{
		OFFSET 1.000000 -70.206398 -1.655000
		CHANNELS 3 Xrotation Yrotation Zrotation
		End Site
		{
			OFFSET 0.000000 21.880577 0.000000
		}
	}
}
MOTION
Frames: 4
Frame Time: 0.033333
7.798647 66.358910 -5.174300 7.340554 14.230039 1.315935 0.000000 0.000001 -0.000000 -32.957029 20.660716 14.705638 38.710804 1.630500 1.138655 -12.919092 1.046649 -8.875428 -0.000000 0.000000 0.000000 0.000002 -0.000000 -0.000002 -25.988614 1.611341 -28.860633 45.937011 3.304358 -4.155856 -5.038999 5.035880 29.533735 -0.000001 0.000000 0.000000 -0.000003 0.000000 0.000000 14.695536 1.733237 -5.127022 5.691285 0.650874 -1.825597 5.681864 0.692815 -1.836197 -4.159098 6.242786 0.578574 -18.249258 55.200718 1.096834 0.000001 0.000000 0.000000 0.000001 0.000000 0.000000 0.000001 0.000000 0.000001 0.000001 0.000000 -0.000000 0.000001 0.000000 -0.000000 0.000001 0.000000 -0.000000 0.000001 0.000000 -0.000000 0.000001 0.000000 0.000000 0.000001 0.000000 0.000000 1.942461 -1.359252 -10.664864 -39.327652 28.416380 -33.754754 -0.403112 -42.916380 -0.322605 -12.381921 -2.571763 -0.362940 40.109927 -15.297146 -0.360514 5.639855 28.097928 11.338792 -0.000000 0.000001 -0.000001 6.882234 2.840067 -61.140459 8.248017 7.640027 -89.897871 -0.000000 -0.000000 0.000001 -2.345539 4.688861 -62.655224 8.754123 9.897099 -87.051273 -0.000001 0.000001 -0.000001 -9.042513 10.045658 -60.766171 8.524176 9.508815 -66.893029 0.000001 0.000001 -0.000001 -17.946925 14.755012 -51.485928 8.868414 8.666986 -84.811948 0.000001 -0.000003 -0.000001 -0.000001 0.000001 -0.000004 0.612815 7.090089 10.172922 3.017492 -14.258879 46.651541 -29.641436 45.900606 26.026397 -26.888582 -4.605459 -9.603724 -3.195493 -4.381322 11.619425 4.236774 -35.051544 -12.266558 -0.000001 -0.000001 0.000004 3.220240 -6.421825 9.901376 0.297801 -1.583086 15.563874 -0.000001 -0.000001 0.000000 0.753021 -8.287749 17.096288 2.641023 -6.156197 38.379509 0.000001 0.000000 -0.000002 0.521011 -9.042388 20.162350 3.332755 -5.975857 42.713192 0.000002 0.000001 -0.000003 -0.572148 -17.308224 25.662178 6.395697 -6.521303 50.605517 -0.000000 0.000001 -0.000003 0.000000 -0.000003 0.000001 0.000002 0.000000 -0.000001 0.000002 0.000001 -0.000002 0.000002 0.000000 -0.000000 0.000002 0.000000 -0.000000 0.000002 0.000000 -0.000001 0.000002 0.000001 -0.000001 0.000002 0.000000 -0.000000 0.000002 0.000000 -0.000000 0.000002 0.000000 -0.000001 0.000002 0.000001 -0.000001 0.000000 0.000001 -0.000000 0.000000 0.000001 -0.000000 0.000000 0.000001 -0.000000 
7.245044 66.171013 -4.363245 7.038122 15.959881 1.100439 -0.000001 -0.000001 -0.000000 -32.765384 19.526182 15.169457 39.169735 0.687474 1.326515 -13.193491 1.046492 -9.596857 -0.000000 -0.000000 0.000000 0.000001 0.000000 -0.000001 -26.154428 -1.096829 -30.320207 40.131586 2.100631 -4.217022 -4.043941 6.153924 30.388017 -0.000000 -0.000000 0.000000 -0.000003 0.000001 -0.000001 14.774160 1.557471 -5.011457 5.743585 0.633320 -1.803784 5.734546 0.687525 -1.814427 -4.048617 5.327848 1.161089 -18.547345 55.098511 1.204472 0.000000 0.000001 0.000000 0.000000 0.000001 0.000000 0.000000 0.000001 0.000000 0.000000 0.000001 -0.000001 -0.000000 0.000000 0.000000 0.000000 0.000001 -0.000001 -0.000000 0.000000 0.000000 0.000000 0.000001 0.000000 0.000000 0.000001 0.000000 1.942414 -1.589345 -10.809127 -40.200615 28.046183 -32.684549 -0.549689 -43.124605 -0.431063 -12.177668 -2.421926 -1.208330 40.109931 -15.297144 -0.360518 5.639858 28.097925 11.338795 -0.000000 -0.000000 0.000000 6.882238 2.840069 -61.140466 8.248016 7.640019 -89.897871 -0.000000 0.000002 -0.000002 -2.345533 4.688868 -62.655231 8.754123 9.897101 -87.051273 0.000004 0.000000 0.000001 -9.042508 10.045666 -60.766171 8.524177 9.508813 -66.893029 0.000002 0.000003 -0.000005 -17.946925 14.755010 -51.485932 8.868411 8.666987 -84.811941 0.000000 -0.000001 -0.000001 -0.000001 0.000001 -0.000004 0.625815 7.092640 10.007830 2.328663 -14.118618 46.199635 -29.027262 44.997962 25.243461 -27.280872 -4.472592 -10.248683 -3.043087 -4.684187 11.459917 4.271512 -35.302311 -12.344273 -0.000000 0.000003 -0.000001 3.215772 -6.544061 10.587656 0.307870 -1.618853 15.819703 0.000000 -0.000000 0.000002 0.763223 -8.319917 17.294066 2.687521 -6.212183 38.836189 0.000000 0.000000 0.000001 0.568053 -9.119430 19.617671 3.269478 -5.910444 42.170602 -0.000000 0.000000 -0.000004 -0.297954 -17.374910 24.698150 6.083044 -6.282618 48.399977 -0.000000 0.000000 0.000000 -0.000000 -0.000000 -0.000000 0.000002 -0.000001 0.000001 0.000000 0.000000 -0.000000 0.000002 -0.000001 -0.000000 0.000002 -0.000001 -0.000000 0.000002 -0.000001 0.000001 0.000000 0.000000 -0.000000 0.000002 -0.000001 -0.000000 0.000002 -0.000001 -0.000000 0.000002 -0.000001 0.000001 0.000000 0.000000 -0.000000 -0.000001 -0.000001 -0.000000 -0.000001 -0.000001 -0.000000 -0.000001 -0.000001 -0.000000 
6.438089 65.944611 -3.586761 6.739105 17.686713 0.886780 0.000000 0.000001 -0.000000 -32.735379 18.352705 15.910004 39.476605 -0.315617 1.492177 -13.187582 0.990509 -10.469562 -0.000000 0.000000 -0.000000 0.000001 -0.000001 -0.000001 -26.865007 -4.891493 -31.565426 34.564930 2.930718 -4.099477 -2.533732 5.735239 29.867256 -0.000000 -0.000000 0.000000 0.000002 0.000000 -0.000002 14.847793 1.336531 -4.912725 5.785802 0.632116 -1.824194 5.777526 0.700417 -1.835463 -3.927268 4.455592 1.713410 -18.822031 55.017239 1.319547 0.000000 0.000000 -0.000000 0.000000 0.000000 -0.000000 0.000000 0.000000 0.000000 0.000000 0.000000 -0.000001 0.000000 0.000000 -0.000000 0.000000 0.000000 -0.000001 0.000000 0.000000 -0.000000 0.000000 0.000000 -0.000000 0.000000 0.000000 -0.000000 1.937293 -1.818826 -10.980667 -40.946851 27.556238 -31.789015 -0.677400 -43.236474 -0.524460 -11.913338 -2.485724 -1.876533 40.109927 -15.297144 -0.360513 5.639857 28.097928 11.338799 -0.000000 0.000001 -0.000001 6.882236 2.840071 -61.140452 8.248015 7.640019 -89.897878 -0.000004 -0.000000 -0.000000 -2.345535 4.688869 -62.655224 8.754125 9.897099 -87.051273 0.000002 0.000001 0.000001 -9.042516 10.045660 -60.766171 8.524175 9.508815 -66.893029 0.000003 0.000001 -0.000002 -17.946927 14.755012 -51.485925 8.868410 8.666985 -84.811948 -0.000004 -0.000001 -0.000001 0.000001 0.000000 0.000002 0.645517 7.065357 9.810111 1.818365 -13.986266 45.947963 -28.077192 43.739459 24.087560 -27.575528 -3.792177 -11.326831 -2.912144 -4.946211 11.322851 4.279791 -35.361508 -12.362616 -0.000001 0.000001 0.000004 3.118833 -6.587592 10.787327 0.310417 -1.627699 15.883176 0.000000 -0.000000 -0.000002 0.731228 -8.216306 16.657913 2.622337 -6.133492 38.196388 -0.000000 0.000000 -0.000003 0.675752 -9.311367 18.297768 3.119091 -5.743619 40.857293 0.000000 0.000000 0.000000 0.051799 -17.505693 23.267282 5.648926 -5.909386 45.166111 0.000000 0.000001 0.000001 -0.000000 0.000000 -0.000001 -0.000003 0.000000 -0.000000 -0.000002 -0.000001 0.000000 -0.000003 0.000000 -0.000001 -0.000003 0.000000 -0.000001 -0.000003 0.000000 -0.000000 -0.000002 -0.000001 0.000000 -0.000003 0.000000 -0.000001 -0.000003 0.000000 -0.000001 -0.000003 0.000000 -0.000000 -0.000002 -0.000001 0.000000 0.000000 0.000001 -0.000000 0.000000 0.000001 -0.000000 0.000000 0.000001 -0.000000 
5.450252 65.699112 -2.849801 6.444966 19.411433 0.663801 0.000000 -0.000000 0.000000 -32.799634 17.166955 16.886068 39.558550 -1.375840 1.546594 -12.913869 0.847640 -11.396186 -0.000000 0.000002 -0.000000 -0.000001 -0.000001 -0.000003 -27.593640 -9.270956 -32.228323 29.615970 3.718425 -4.035725 -1.810898 5.587223 28.499258 0.000000 0.000000 0.000000 -0.000001 0.000000 -0.000001 14.910817 1.021282 -4.812034 5.817471 0.629738 -1.897550 5.810173 0.707707 -1.909029 -3.803930 3.649600 2.229522 -19.105226 54.954633 1.483843 0.000000 0.000001 -0.000000 0.000000 0.000001 -0.000000 0.000000 0.000001 0.000000 0.000000 0.000001 -0.000000 0.000000 -0.000000 -0.000000 0.000000 0.000001 -0.000000 0.000000 -0.000000 -0.000000 0.000000 0.000001 -0.000000 0.000000 0.000001 -0.000000 1.919090 -2.048974 -11.207672 -41.485319 27.070222 -31.229005 -0.758227 -43.206240 -0.581802 -11.590889 -2.711202 -2.149564 40.109927 -15.297148 -0.360521 5.639856 28.097930 11.338798 0.000000 -0.000000 0.000000 6.882234 2.840071 -61.140459 8.248013 7.640024 -89.897871 -0.000001 0.000003 -0.000001 -2.345536 4.688872 -62.655224 8.754121 9.897099 -87.051280 0.000002 0.000001 0.000001 -9.042515 10.045666 -60.766178 8.524173 9.508825 -66.893035 0.000002 0.000000 0.000000 -17.946923 14.755020 -51.485932 8.868412 8.666987 -84.811948 -0.000003 0.000000 0.000001 0.000001 -0.000001 0.000000 0.661593 7.048534 9.598762 1.582157 -13.599626 45.978159 -26.889318 42.144665 22.659282 -27.736126 -2.593837 -12.625239 -2.800036 -5.171219 11.205278 4.190596 -34.703324 -12.159953 -0.000001 0.000001 0.000001 2.788827 -6.228097 10.190057 0.286444 -1.542110 15.270908 -0.000000 -0.000002 -0.000000 0.658908 -7.965042 15.118187 2.467860 -5.939035 36.648517 0.000000 0.000000 0.000001 0.815882 -9.602771 16.382313 2.908683 -5.495636 38.953464 0.000000 -0.000001 0.000002 0.443693 -17.697799 21.483225 5.154238 -5.412736 41.167794 -0.000000 0.000001 -0.000001 0.000002 0.000004 0.000002 -0.000002 -0.000001 0.000001 -0.000002 0.000000 -0.000001 -0.000002 -0.000001 -0.000000 -0.000002 -0.000001 -0.000000 -0.000002 -0.000001 0.000001 -0.000002 0.000000 -0.000001 -0.000002 -0.000001 -0.000000 -0.000002 -0.000001 -0.000000 -0.000002 -0.000001 0.000001 -0.000002 0.000000 -0.000001 0.000000 -0.000000 0.000000 0.000000 -0.000000 0.000000 0.000000 -0.000000 0.000000 
